<svg width="238" height="259" viewBox="0 0 238 259" fill="none" xmlns="http://www.w3.org/2000/svg">
<mask id="mask0_8121_1002" style="mask-type:alpha" maskUnits="userSpaceOnUse" x="0" y="0" width="238" height="259">
<rect width="238" height="259" rx="20" fill="#E36867"/>
</mask>
<g mask="url(#mask0_8121_1002)">
<rect width="238" height="261" rx="20" fill="#5D5FEF"/>
<circle cx="121" cy="121" r="121" transform="matrix(-1 0 0 1 305 -142)" fill="url(#paint0_linear_8121_1002)"/>
<ellipse cx="153" cy="151.5" rx="153" ry="151.5" transform="matrix(-1 0 0 1 103 137)" fill="url(#paint1_linear_8121_1002)"/>
</g>
<rect x="95.5" y="31.5" width="48" height="48" rx="16" fill="white"/>
<path d="M113.551 45.1967C112.419 46.3498 112.419 48.2157 113.572 49.3687L116.088 51.8845C118.457 54.2535 118.457 58.1111 116.088 60.4801L111.476 55.8678C110.291 54.6833 109.694 53.1214 109.694 51.57C109.694 50.0186 110.291 48.4568 111.476 47.2723L113.52 45.2282C113.53 45.2177 113.541 45.2072 113.551 45.1967Z" fill="#5D5FEF"/>
<path d="M115.564 51.3593L113.572 49.3676C112.419 48.2146 112.409 46.3592 113.551 45.1956C114.683 44.0845 116.486 44.1055 117.608 45.2271C118.174 45.7931 118.457 46.5374 118.457 47.2711C118.457 48.0049 118.174 48.7492 117.608 49.3152L117.136 49.7869" fill="#5D5FEF"/>
<path d="M125.449 65.7939C126.581 64.6409 126.581 62.775 125.428 61.6219L122.912 59.1062C120.543 56.7371 120.543 52.8796 122.912 50.5106L127.524 55.1228C128.709 56.3074 129.306 57.8692 129.306 59.4206C129.306 60.972 128.709 62.5339 127.524 63.7184L125.48 65.7625C125.459 65.7834 125.449 65.7939 125.449 65.7939Z" fill="#5D5FEF"/>
<path d="M123.425 59.6407L125.417 61.6323C126.57 62.7854 126.58 64.6408 125.438 65.8043C124.306 66.9155 122.503 66.8945 121.381 65.7729C120.815 65.2068 120.532 64.4626 120.532 63.7288C120.532 62.9951 120.815 62.2508 121.381 61.6848L121.863 61.2026" fill="#5D5FEF"/>
<path d="M65.9846 96.54H61.1046V110.5H65.9846C70.4446 110.5 73.3446 107.76 73.3446 103.54C73.3446 99.3 70.4446 96.54 65.9846 96.54ZM63.9046 108.12V98.9H65.8846C68.8246 98.9 70.4846 100.64 70.4846 103.54C70.4846 106.44 68.8246 108.12 65.8846 108.12H63.9046ZM74.7205 104.92C74.7205 108.38 76.9605 110.68 79.7605 110.68C81.5205 110.68 82.7805 109.84 83.4405 108.88V110.5H86.2605V99.42H83.4405V101C82.7805 100.08 81.5605 99.24 79.7805 99.24C76.9605 99.24 74.7205 101.46 74.7205 104.92ZM83.4405 104.96C83.4405 107.06 82.0405 108.22 80.5005 108.22C79.0005 108.22 77.5805 107.02 77.5805 104.92C77.5805 102.82 79.0005 101.7 80.5005 101.7C82.0405 101.7 83.4405 102.86 83.4405 104.96ZM91.7952 101.04V95.7H88.9952V110.5H91.7952V108.92C92.4752 109.88 93.7152 110.68 95.4552 110.68C98.2952 110.68 100.515 108.38 100.515 104.92C100.515 101.46 98.2952 99.24 95.4552 99.24C93.7752 99.24 92.4752 100.02 91.7952 101.04ZM97.6552 104.92C97.6552 107.02 96.2352 108.22 94.7152 108.22C93.2152 108.22 91.7952 107.06 91.7952 104.96C91.7952 102.86 93.2152 101.7 94.7152 101.7C96.2352 101.7 97.6552 102.82 97.6552 104.92ZM101.83 104.92C101.83 108.38 104.07 110.68 106.87 110.68C108.63 110.68 109.89 109.84 110.55 108.88V110.5H113.37V99.42H110.55V101C109.89 100.08 108.67 99.24 106.89 99.24C104.07 99.24 101.83 101.46 101.83 104.92ZM110.55 104.96C110.55 107.06 109.15 108.22 107.61 108.22C106.11 108.22 104.69 107.02 104.69 104.92C104.69 102.82 106.11 101.7 107.61 101.7C109.15 101.7 110.55 102.86 110.55 104.96ZM123.865 110.5H126.665V104C126.665 100.94 124.825 99.26 122.245 99.26C120.825 99.26 119.625 99.86 118.905 100.8V99.42H116.105V110.5H118.905V104.38C118.905 102.6 119.885 101.64 121.405 101.64C122.885 101.64 123.865 102.6 123.865 104.38V110.5ZM128.607 104.92C128.607 108.38 130.847 110.68 133.667 110.68C135.407 110.68 136.667 109.82 137.327 108.86V110.58C137.327 112.64 136.127 113.52 134.587 113.52C133.187 113.52 132.147 112.86 131.867 111.86H129.087C129.367 114.4 131.547 115.96 134.667 115.96C138.307 115.96 140.147 113.58 140.147 110.58V99.42H137.327V101C136.667 100.04 135.407 99.24 133.667 99.24C130.847 99.24 128.607 101.46 128.607 104.92ZM137.327 104.96C137.327 107.06 135.927 108.22 134.387 108.22C132.887 108.22 131.467 107.02 131.467 104.92C131.467 102.82 132.887 101.7 134.387 101.7C135.927 101.7 137.327 102.86 137.327 104.96ZM150.448 102.88V98.82H152.668C154.248 98.82 154.948 99.58 154.948 100.86C154.948 102.1 154.248 102.88 152.668 102.88H150.448ZM157.828 100.86C157.828 98.44 156.148 96.54 152.788 96.54H147.648V110.5H150.448V105.14H152.788C156.388 105.14 157.828 102.98 157.828 100.86ZM162.616 104.98C162.616 102.84 163.616 102.2 165.276 102.2H166.016V99.26C164.476 99.26 163.316 100 162.616 101.14V99.42H159.816V110.5H162.616V104.98ZM178.601 104.96C178.601 101.46 176.101 99.24 172.901 99.24C169.701 99.24 167.201 101.46 167.201 104.96C167.201 108.44 169.621 110.68 172.821 110.68C176.041 110.68 178.601 108.44 178.601 104.96ZM170.041 104.96C170.041 102.74 171.381 101.68 172.861 101.68C174.341 101.68 175.721 102.74 175.721 104.96C175.721 107.16 174.301 108.24 172.821 108.24C171.321 108.24 170.041 107.16 170.041 104.96Z" fill="white"/>
<path d="M74.288 131.052C71.936 131.052 70.028 132.816 70.028 135.312C70.028 137.82 71.936 139.572 74.288 139.572C76.532 139.572 78.164 137.928 78.416 135.996V134.928H73.82V136.02H76.952C76.748 137.424 75.8 138.336 74.288 138.336C72.632 138.336 71.432 137.148 71.432 135.312C71.432 133.476 72.632 132.3 74.288 132.3C75.284 132.3 76.076 132.72 76.52 133.56H78.164C77.528 131.928 76.028 131.052 74.288 131.052ZM82.5492 133.932C83.5692 133.932 84.3732 134.58 84.3972 135.6H80.7372C80.8812 134.556 81.6252 133.932 82.5492 133.932ZM85.6452 137.532H84.1692C83.9172 138.048 83.4492 138.456 82.6092 138.456C81.6012 138.456 80.8212 137.796 80.7252 136.704H85.7772C85.8132 136.476 85.8252 136.26 85.8252 136.032C85.8252 134.088 84.4932 132.78 82.6092 132.78C80.6532 132.78 79.3092 134.112 79.3092 136.188C79.3092 138.264 80.7132 139.608 82.6092 139.608C84.2292 139.608 85.2732 138.684 85.6452 137.532ZM87.3875 137.664C87.3875 139.008 88.1195 139.5 89.2955 139.5H90.3755V138.36H89.5355C88.9595 138.36 88.7675 138.156 88.7675 137.664V134.004H90.3755V132.888H88.7675V131.244H87.3875V132.888H86.6075V134.004H87.3875V137.664ZM94.2975 136.164C94.2975 138.204 95.6775 139.608 97.3935 139.608C98.4975 139.608 99.2895 139.08 99.7095 138.516V139.5H101.09V132.888H99.7095V133.848C99.3015 133.308 98.5335 132.78 97.4175 132.78C95.6775 132.78 94.2975 134.124 94.2975 136.164ZM99.7095 136.188C99.7095 137.616 98.7375 138.42 97.7055 138.42C96.6855 138.42 95.7015 137.592 95.7015 136.164C95.7015 134.736 96.6855 133.968 97.7055 133.968C98.7375 133.968 99.7095 134.772 99.7095 136.188ZM102.43 136.188C102.43 138.264 103.774 139.608 105.67 139.608C107.29 139.608 108.346 138.708 108.718 137.412H107.242C106.99 138.096 106.486 138.456 105.67 138.456C104.566 138.456 103.834 137.64 103.834 136.188C103.834 134.748 104.566 133.932 105.67 133.932C106.486 133.932 107.014 134.34 107.242 134.976H108.718C108.346 133.584 107.29 132.78 105.67 132.78C103.774 132.78 102.43 134.124 102.43 136.188ZM109.626 136.188C109.626 138.264 110.97 139.608 112.866 139.608C114.486 139.608 115.542 138.708 115.914 137.412H114.438C114.186 138.096 113.682 138.456 112.866 138.456C111.762 138.456 111.03 137.64 111.03 136.188C111.03 134.748 111.762 133.932 112.866 133.932C113.682 133.932 114.21 134.34 114.438 134.976H115.914C115.542 133.584 114.486 132.78 112.866 132.78C110.97 132.78 109.626 134.124 109.626 136.188ZM120.061 133.932C121.081 133.932 121.885 134.58 121.909 135.6H118.249C118.393 134.556 119.137 133.932 120.061 133.932ZM123.157 137.532H121.681C121.429 138.048 120.961 138.456 120.121 138.456C119.113 138.456 118.333 137.796 118.237 136.704H123.289C123.325 136.476 123.337 136.26 123.337 136.032C123.337 134.088 122.005 132.78 120.121 132.78C118.165 132.78 116.821 134.112 116.821 136.188C116.821 138.264 118.225 139.608 120.121 139.608C121.741 139.608 122.785 138.684 123.157 137.532ZM129.615 137.652C129.543 135.264 125.811 136.008 125.811 134.676C125.811 134.232 126.195 133.932 126.927 133.932C127.671 133.932 128.115 134.328 128.163 134.904H129.531C129.459 133.584 128.475 132.78 126.975 132.78C125.415 132.78 124.431 133.632 124.431 134.688C124.431 137.112 128.271 136.368 128.271 137.664C128.271 138.12 127.851 138.456 127.059 138.456C126.303 138.456 125.787 138.012 125.739 137.472H124.323C124.383 138.672 125.499 139.608 127.083 139.608C128.643 139.608 129.615 138.768 129.615 137.652ZM136.025 137.652C135.953 135.264 132.221 136.008 132.221 134.676C132.221 134.232 132.605 133.932 133.337 133.932C134.081 133.932 134.525 134.328 134.573 134.904H135.941C135.869 133.584 134.885 132.78 133.385 132.78C131.825 132.78 130.841 133.632 130.841 134.688C130.841 137.112 134.681 136.368 134.681 137.664C134.681 138.12 134.261 138.456 133.469 138.456C132.713 138.456 132.197 138.012 132.149 137.472H130.733C130.793 138.672 131.909 139.608 133.493 139.608C135.053 139.608 136.025 138.768 136.025 137.652ZM140.837 137.664C140.837 139.008 141.569 139.5 142.745 139.5H143.825V138.36H142.985C142.409 138.36 142.217 138.156 142.217 137.664V134.004H143.825V132.888H142.217V131.244H140.837V132.888H140.057V134.004H140.837V137.664ZM151.386 136.188C151.386 134.112 149.898 132.78 148.014 132.78C146.13 132.78 144.642 134.112 144.642 136.188C144.642 138.264 146.07 139.608 147.954 139.608C149.85 139.608 151.386 138.264 151.386 136.188ZM146.034 136.188C146.034 134.688 146.958 133.968 147.99 133.968C149.01 133.968 149.982 134.688 149.982 136.188C149.982 137.688 148.974 138.42 147.954 138.42C146.922 138.42 146.034 137.688 146.034 136.188ZM155.399 136.164C155.399 138.204 156.779 139.608 158.495 139.608C159.599 139.608 160.391 139.08 160.811 138.516V139.5H162.191V132.888H160.811V133.848C160.403 133.308 159.635 132.78 158.519 132.78C156.779 132.78 155.399 134.124 155.399 136.164ZM160.811 136.188C160.811 137.616 159.839 138.42 158.807 138.42C157.787 138.42 156.803 137.592 156.803 136.164C156.803 134.736 157.787 133.968 158.807 133.968C159.839 133.968 160.811 134.772 160.811 136.188ZM163.988 139.5H165.356V130.62H163.988V139.5ZM167.152 139.5H168.52V130.62H167.152V139.5ZM54.9899 155.5H56.3699V150.004H57.5939V148.888H56.3699V148.42C56.3699 147.664 56.6579 147.376 57.4979 147.376V146.236C55.7699 146.236 54.9899 146.896 54.9899 148.42V148.888H54.2099V150.004H54.9899V155.5ZM61.5903 149.932C62.6103 149.932 63.4143 150.58 63.4383 151.6H59.7783C59.9223 150.556 60.6663 149.932 61.5903 149.932ZM64.6862 153.532H63.2103C62.9583 154.048 62.4903 154.456 61.6503 154.456C60.6423 154.456 59.8623 153.796 59.7663 152.704H64.8183C64.8543 152.476 64.8663 152.26 64.8663 152.032C64.8663 150.088 63.5343 148.78 61.6503 148.78C59.6943 148.78 58.3503 150.112 58.3503 152.188C58.3503 154.264 59.7543 155.608 61.6503 155.608C63.2703 155.608 64.3143 154.684 64.6862 153.532ZM65.7565 152.164C65.7565 154.204 67.1365 155.608 68.8525 155.608C69.9565 155.608 70.7485 155.08 71.1685 154.516V155.5H72.5485V148.888H71.1685V149.848C70.7605 149.308 69.9925 148.78 68.8765 148.78C67.1365 148.78 65.7565 150.124 65.7565 152.164ZM71.1685 152.188C71.1685 153.616 70.1965 154.42 69.1645 154.42C68.1445 154.42 67.1605 153.592 67.1605 152.164C67.1605 150.736 68.1445 149.968 69.1645 149.968C70.1965 149.968 71.1685 150.772 71.1685 152.188ZM74.5613 153.664C74.5613 155.008 75.2933 155.5 76.4693 155.5H77.5493V154.36H76.7093C76.1333 154.36 75.9413 154.156 75.9413 153.664V150.004H77.5493V148.888H75.9413V147.244H74.5613V148.888H73.7813V150.004H74.5613V153.664ZM84.7982 148.888H83.4302V152.572C83.4302 153.784 82.7702 154.408 81.7622 154.408C80.7662 154.408 80.1062 153.784 80.1062 152.572V148.888H78.7502V152.776C78.7502 154.624 79.9262 155.596 81.4742 155.596C82.2542 155.596 82.9982 155.272 83.4302 154.708V155.5H84.7982V148.888ZM87.9711 152.02C87.9711 150.616 88.5951 150.196 89.6031 150.196H89.9511V148.78C89.0151 148.78 88.3551 149.188 87.9711 149.848V148.888H86.6031V155.5H87.9711V152.02ZM93.9926 149.932C95.0126 149.932 95.8166 150.58 95.8406 151.6H92.1806C92.3246 150.556 93.0686 149.932 93.9926 149.932ZM97.0886 153.532H95.6126C95.3606 154.048 94.8926 154.456 94.0526 154.456C93.0446 154.456 92.2646 153.796 92.1686 152.704H97.2206C97.2566 152.476 97.2686 152.26 97.2686 152.032C97.2686 150.088 95.9366 148.78 94.0526 148.78C92.0966 148.78 90.7526 150.112 90.7526 152.188C90.7526 154.264 92.1566 155.608 94.0526 155.608C95.6726 155.608 96.7166 154.684 97.0886 153.532ZM103.547 153.652C103.475 151.264 99.7428 152.008 99.7428 150.676C99.7428 150.232 100.127 149.932 100.859 149.932C101.603 149.932 102.047 150.328 102.095 150.904H103.463C103.391 149.584 102.407 148.78 100.907 148.78C99.3468 148.78 98.3628 149.632 98.3628 150.688C98.3628 153.112 102.203 152.368 102.203 153.664C102.203 154.12 101.783 154.456 100.991 154.456C100.235 154.456 99.7188 154.012 99.6708 153.472H98.2548C98.3148 154.672 99.4308 155.608 101.015 155.608C102.575 155.608 103.547 154.768 103.547 153.652ZM114.442 152.188C114.442 150.112 112.954 148.78 111.07 148.78C109.186 148.78 107.698 150.112 107.698 152.188C107.698 154.264 109.126 155.608 111.01 155.608C112.906 155.608 114.442 154.264 114.442 152.188ZM109.09 152.188C109.09 150.688 110.014 149.968 111.046 149.968C112.066 149.968 113.038 150.688 113.038 152.188C113.038 153.688 112.03 154.42 111.01 154.42C109.978 154.42 109.09 153.688 109.09 152.188ZM120.487 155.5H121.843V151.6C121.843 149.752 120.679 148.78 119.131 148.78C118.339 148.78 117.607 149.104 117.163 149.644V148.888H115.795V155.5H117.163V151.804C117.163 150.592 117.823 149.968 118.831 149.968C119.827 149.968 120.487 150.592 120.487 151.804V155.5ZM126.921 153.664C126.921 155.008 127.653 155.5 128.829 155.5H129.909V154.36H129.069C128.493 154.36 128.301 154.156 128.301 153.664V150.004H129.909V148.888H128.301V147.244H126.921V148.888H126.141V150.004H126.921V153.664ZM133.954 149.932C134.974 149.932 135.778 150.58 135.802 151.6H132.142C132.286 150.556 133.03 149.932 133.954 149.932ZM137.05 153.532H135.574C135.322 154.048 134.854 154.456 134.014 154.456C133.006 154.456 132.226 153.796 132.13 152.704H137.182C137.218 152.476 137.23 152.26 137.23 152.032C137.23 150.088 135.898 148.78 134.014 148.78C132.058 148.78 130.714 150.112 130.714 152.188C130.714 154.264 132.118 155.608 134.014 155.608C135.634 155.608 136.678 154.684 137.05 153.532ZM138.792 153.664C138.792 155.008 139.524 155.5 140.7 155.5H141.78V154.36H140.94C140.364 154.36 140.172 154.156 140.172 153.664V150.004H141.78V148.888H140.172V147.244H138.792V148.888H138.012V150.004H138.792V153.664ZM149.029 148.888H147.661V152.572C147.661 153.784 147.001 154.408 145.993 154.408C144.997 154.408 144.337 153.784 144.337 152.572V148.888H142.981V152.776C142.981 154.624 144.157 155.596 145.705 155.596C146.485 155.596 147.229 155.272 147.661 154.708V155.5H149.029V148.888ZM160.206 155.5H161.562V151.6C161.562 149.752 160.386 148.78 158.838 148.78C157.878 148.78 156.942 149.284 156.534 150.088C156.078 149.224 155.202 148.78 154.158 148.78C153.366 148.78 152.646 149.104 152.202 149.644V148.888H150.834V155.5H152.202V151.804C152.202 150.592 152.862 149.968 153.87 149.968C154.866 149.968 155.526 150.592 155.526 151.804V155.5H156.882V151.804C156.882 150.592 157.542 149.968 158.55 149.968C159.546 149.968 160.206 150.592 160.206 151.804V155.5ZM164.67 149.872V146.62H163.302V155.5H164.67V154.54C165.102 155.116 165.882 155.608 166.974 155.608C168.714 155.608 170.082 154.204 170.082 152.164C170.082 150.124 168.726 148.78 166.974 148.78C165.93 148.78 165.102 149.272 164.67 149.872ZM168.69 152.164C168.69 153.592 167.706 154.42 166.674 154.42C165.654 154.42 164.67 153.616 164.67 152.188C164.67 150.772 165.654 149.968 166.674 149.968C167.706 149.968 168.69 150.736 168.69 152.164ZM170.979 152.164C170.979 154.204 172.359 155.608 174.075 155.608C175.179 155.608 175.971 155.08 176.391 154.516V155.5H177.771V148.888H176.391V149.848C175.983 149.308 175.215 148.78 174.099 148.78C172.359 148.78 170.979 150.124 170.979 152.164ZM176.391 152.188C176.391 153.616 175.419 154.42 174.387 154.42C173.367 154.42 172.383 153.592 172.383 152.164C172.383 150.736 173.367 149.968 174.387 149.968C175.419 149.968 176.391 150.772 176.391 152.188ZM184.5 153.652C184.428 151.264 180.696 152.008 180.696 150.676C180.696 150.232 181.08 149.932 181.812 149.932C182.556 149.932 183 150.328 183.048 150.904H184.416C184.344 149.584 183.36 148.78 181.86 148.78C180.3 148.78 179.316 149.632 179.316 150.688C179.316 153.112 183.156 152.368 183.156 153.664C183.156 154.12 182.736 154.456 181.944 154.456C181.188 154.456 180.672 154.012 180.624 153.472H179.208C179.268 154.672 180.384 155.608 181.968 155.608C183.528 155.608 184.5 154.768 184.5 153.652Z" fill="white" fill-opacity="0.8"/>
<rect x="51.5" y="189.5" width="136" height="40" rx="8" fill="white"/>
<path d="M96.256 204.188C93.024 204.188 90.56 206.556 90.56 209.9C90.56 213.244 93.024 215.596 96.272 215.596C99.248 215.596 101.28 213.516 101.728 211.244V209.292H95.68V211.004H99.52C99.184 212.588 98.08 213.58 96.352 213.58C94.272 213.58 92.864 212.172 92.864 209.9C92.864 207.676 94.256 206.252 96.256 206.252C97.44 206.252 98.368 206.748 98.88 207.692H101.456C100.736 205.452 98.752 204.188 96.256 204.188ZM107.193 208.332C108.345 208.332 109.273 209.068 109.305 210.236H105.097C105.273 209.02 106.121 208.332 107.193 208.332ZM111.401 212.716H108.985C108.697 213.308 108.169 213.788 107.209 213.788C106.089 213.788 105.193 213.052 105.081 211.74H111.561C111.609 211.452 111.625 211.164 111.625 210.876C111.625 208.236 109.817 206.492 107.257 206.492C104.633 206.492 102.809 208.268 102.809 211.068C102.809 213.852 104.681 215.644 107.257 215.644C109.449 215.644 110.921 214.348 111.401 212.716ZM113.612 212.748C113.612 214.78 114.748 215.5 116.444 215.5H117.852V213.612H116.812C116.108 213.612 115.868 213.356 115.868 212.764V208.476H117.852V206.636H115.868V204.444H113.612V206.636H112.556V208.476H113.612V212.748ZM125.516 209.404V206.156H127.292C128.556 206.156 129.116 206.764 129.116 207.788C129.116 208.78 128.556 209.404 127.292 209.404H125.516ZM131.42 207.788C131.42 205.852 130.076 204.332 127.388 204.332H123.276V215.5H125.516V211.212H127.388C130.268 211.212 131.42 209.484 131.42 207.788ZM135.25 211.084C135.25 209.372 136.05 208.86 137.378 208.86H137.97V206.508C136.738 206.508 135.81 207.1 135.25 208.012V206.636H133.01V215.5H135.25V211.084ZM148.039 211.068C148.039 208.268 146.039 206.492 143.479 206.492C140.919 206.492 138.919 208.268 138.919 211.068C138.919 213.852 140.855 215.644 143.415 215.644C145.991 215.644 148.039 213.852 148.039 211.068ZM141.191 211.068C141.191 209.292 142.263 208.444 143.447 208.444C144.631 208.444 145.735 209.292 145.735 211.068C145.735 212.828 144.599 213.692 143.415 213.692C142.215 213.692 141.191 212.828 141.191 211.068Z" fill="#5D5FEF"/>
<defs>
<linearGradient id="paint0_linear_8121_1002" x1="276.637" y1="273.654" x2="169.609" y2="144.783" gradientUnits="userSpaceOnUse">
<stop stop-color="white" stop-opacity="0.4"/>
<stop offset="1" stop-color="white" stop-opacity="0"/>
</linearGradient>
<linearGradient id="paint1_linear_8121_1002" x1="-48.5379" y1="-54.5922" x2="151.289" y2="120.799" gradientUnits="userSpaceOnUse">
<stop stop-color="white" stop-opacity="0.4"/>
<stop offset="1" stop-color="white" stop-opacity="0"/>
</linearGradient>
</defs>
</svg>
